<svg viewBox="0 0 1920 1080" xmlns="http://www.w3.org/2000/svg"><path d="m1918.05.12 2.77 1075.57-1881.53 3.07 1015.4-589.06 36.94-490.26z" fill="#e1eeff"/><path d="m.9 1079.92-2.68-1079.84h1105.55s17.01 130.53 18.9 179.72 3.78 128.64 1.89 168.37-15.12 149.45-28.35 185.39-39.69 102.16-73.7 143.78c-34.02 41.62-96.38 87.02-128.51 100.26s-91.1 7.11-104.33 12.78c-13.23 5.68-84.65 36.41-111.11 66.67-26.46 30.27-94.09 91.84-145.11 116.43-51.03 24.59-121.35 53.83-210.17 57.61s-152.59 23.55-175.53 30.28c-23.87 7-72.2 22.33-146.84 18.55z" fill="#023e8a"/></svg>