<?xml version="1.0" encoding="utf-8"?>
<!-- Generator: Adobe Illustrator 27.3.1, SVG Export Plug-In . SVG Version: 6.00 Build 0)  -->
<svg version="1.1" id="Lag_1" xmlns="http://www.w3.org/2000/svg" xmlns:xlink="http://www.w3.org/1999/xlink" x="0px" y="0px"
	 viewBox="0 0 1920 1080" style="enable-background:new 0 0 1920 1080;" xml:space="preserve">
<style type="text/css">
	.st0{fill:#E1EEFF;}
	.st1{fill:#023E8A;}
</style>
<polygon class="st0" points="1920.52,0.24 1331.95,1.41 13.79,1052.71 0.88,1056.41 0.14,1078.82 1919.78,1079.57 "/>
<path class="st1" d="M0.14,1078.82L-1.67-0.19L1502.1-3.8c0,0,32.82,220.07,33.17,262.15c0.25,29.5,0.49,208.75-48.53,334.66
	c-45.98,118.11-171.49,174.54-194.72,172.57c-3.7-0.31-42.55,8.6-46.55,9.49c-25.71,5.68-91.75,15.44-169.6,21.71
	c-90.37,7.29-131.13,48.41-149.43,63.9c-2.57,2.18-67.38,78.25-69.47,80.89c-22.94,29.12-37.02,52-100.49,80.39
	c-72.74,32.54-230.61,8.52-384.72,22.97c-154.11,14.45-137.46,8.36-174.78,17.99C159.66,1072.56,66.36,1089.66,0.14,1078.82z"/>
</svg>
