<?xml version="1.0" encoding="UTF-8"?>
<svg id="Lag_1" data-name="Lag 1" xmlns="http://www.w3.org/2000/svg" viewBox="0 0 197.6 205.7">
  <defs>
    <style>
      .cls-1, .cls-2 {
        isolation: isolate;
      }

      .cls-3 {
        fill: #e1eeff;
      }

      .cls-4 {
        fill: #212326;
      }

      .cls-2 {
        fill: #023e8a;
        font-family: Gotham-BoldItalic, Gotham;
        font-size: 12px;
        font-style: italic;
        font-weight: 700;
      }
    </style>
  </defs>
  <path class="cls-3" d="m67.2,12.3c4.1-2.5,8.4-4.5,13-6,11.6-3.8,32.1-7.5,51.6-.5,28.2,10.2,38.1,14.1,49.9,23,5.6,4.2,9,11.7,11,18.5,2,6.7,2.8,13.7,2.5,20.7-.4,9.7-1.2,33.5-1.1,38.5,0,7.1,2.3,38.6-.6,47s-12.2,28.6-36.6,38.7c-24.4,10.1-67.1,13.5-84.3,7.6s-40.4-14.7-45.6-21.2c-5.1-6.3-20.3-56-21.5-59.5-1-2.8-5.8-32-2-40.8s17.4-24.6,20.8-28.9c4.6-5.9,7.2-12.9,14.1-19.4,5.3-5,21.1-13,28.8-17.7Z"/>
  <g class="cls-1">
    <text class="cls-2" transform="translate(38.55 77.04)"><tspan x="0" y="0" xml:space="preserve">&quot;Jeg blev allerede fra  </tspan></text>
    <text class="cls-2" transform="translate(42.15 91.44)"><tspan x="0" y="0" xml:space="preserve">starten spurgt ind til  </tspan></text>
    <text class="cls-2" transform="translate(52.95 105.84)"><tspan x="0" y="0" xml:space="preserve">min virksomheds  </tspan></text>
    <text class="cls-2" transform="translate(48.15 120.24)"><tspan x="0" y="0" xml:space="preserve">værdier og sociale  </tspan></text>
    <text class="cls-2" transform="translate(43.85 134.64)"><tspan x="0" y="0" xml:space="preserve">miljø, og derfor ved  </tspan></text>
    <text class="cls-2" transform="translate(53.05 149.04)"><tspan x="0" y="0" xml:space="preserve">jeg at jeg fik den  </tspan></text>
    <text class="cls-2" transform="translate(53.65 163.44)"><tspan x="0" y="0">bedste kandidat&quot;</tspan></text>
  </g>
  <path class="cls-4" d="m106.19,32.26l13.4,13.34v7.16h-6.25v-4.59l-9.73-9.69h-2.02v14.28h-6.25v-20.51h10.86Zm7.15,7.12v-7.12h6.25v7.12h-6.25Z"/>
</svg>