<?xml version="1.0" encoding="utf-8"?>
<!-- Generator: Adobe Illustrator 27.3.1, SVG Export Plug-In . SVG Version: 6.00 Build 0)  -->
<svg version="1.1" id="Lag_1" xmlns="http://www.w3.org/2000/svg" xmlns:xlink="http://www.w3.org/1999/xlink" x="0px" y="0px"
	 viewBox="0 0 149.21 70.52" style="enable-background:new 0 0 149.21 70.52;" xml:space="preserve">
<style type="text/css">
	.st0{fill:#FF9557;}
</style>
<path class="st0" d="M8.54,53.06c0,0-12.28-2.19-5.44-18.21S20.47,5.67,20.47,5.67s9.31-8.78,32.62-3.07
	c4.09,1,12.66,4.99,15.99,6.58c0.89,0.43,1.86,0.48,2.78,0.16c5.09-1.79,22.28-6.28,28.93-6.96c7.55-0.77,23.67-4.83,39.1,7.46
	s7.01,28.96,7.01,28.96s-2.98,7.24-6.66,12.73c-3.68,5.49-4.73,8.12-10.87,12.73c-6.14,4.61-16.48,0-16.48,0l-14.91-6.58
	c0,0-11.05-3.29-15.78,1.76c-4.73,5.05-9.67,8.58-18.07,10.22c-10.22,2-10.22-7.59-17.7-8.9c-8.97-1.57-18.94-2.85-27.18-4.83
	C11,53.93,8.54,53.06,8.54,53.06z"/>
</svg>
