<?xml version="1.0" encoding="UTF-8"?>
<svg id="Lag_1" data-name="Lag 1" xmlns="http://www.w3.org/2000/svg" viewBox="0 0 1920 1080">
  <defs>
    <style>
      .cls-1 {
        fill: #e1eeff;
      }
    </style>
  </defs>
  <path class="cls-1" d="m1039.7,71.82s200.53,54.26,224.12,66.06c23.59,11.8,110.88,58.98,136.83,115.6s30.67,117.96,23.59,169.86c-7.08,51.9,11.8,110.88,11.8,148.63s-21.23,148.63-44.82,184.01c-23.59,35.39-61.34,94.37-127.39,122.68s-120.32,49.54-205.25,54.26-264.23-7.08-264.23-7.08c0,0-158.06-2.36-205.25-28.31s-92.01-101.44-108.52-125.04-96.73-186.37-87.29-240.63c9.44-54.26,35.39-219.4,35.39-219.4,0,0,7.13-63.99,41.28-87.15,79.75-54.08-10.61-42.6,206.43-106.3s316.13-56.62,363.31-47.18Z"/>
</svg>