<svg viewBox="0 0 1920 1080" xmlns="http://www.w3.org/2000/svg"><path d="m1039.7 71.82s200.53 54.26 224.12 66.06 110.88 58.98 136.83 115.6 30.67 117.96 23.59 169.86 11.8 110.88 11.8 148.63-21.23 148.63-44.82 184.01-61.34 94.37-127.39 122.68-120.32 49.54-205.25 54.26-264.23-7.08-264.23-7.08-158.06-2.36-205.25-28.31-92.01-101.44-108.52-125.04-96.73-186.37-87.29-240.63 35.39-219.4 35.39-219.4 7.13-63.99 41.28-87.15c79.75-54.08-10.61-42.6 206.43-106.3s316.13-56.62 363.31-47.18z" fill="#023e8a"/></svg>