<?xml version="1.0" encoding="utf-8"?>
<!-- Generator: Adobe Illustrator 27.3.1, SVG Export Plug-In . SVG Version: 6.00 Build 0)  -->
<svg version="1.1" id="Lag_1" xmlns="http://www.w3.org/2000/svg" xmlns:xlink="http://www.w3.org/1999/xlink" x="0px" y="0px"
	 viewBox="0 0 195.65 187.67" style="enable-background:new 0 0 195.65 187.67;" xml:space="preserve">
<style type="text/css">
	.st0{fill:#E1EEFF;}
</style>
<path class="st0" d="M10.25,50.22c1-0.7,1.97-1.42,2.91-2.2c8.79-7.31,47.07-38.33,70.9-44.25c27.05-6.72,64.75,5.04,72.29,9.66
	s25.16,36.55,28.71,49.16c3.55,12.61,7.56,20.17,8.4,31.51c0.7,9.48,1.03,18.07-10.95,33.19c-7.56,9.55-17.54,25.29-23.87,35.6
	c-5.05,8.23-12.74,14.5-21.83,17.75c-6.98,2.49-15.84,4.63-25.7,4.63c-23.51,0-48.34,1.68-65.2-3.78
	c-16.85-5.46-24.84-7.14-26.61-16.81c-1.6-8.7-12.54-52.47-14.71-61.12c-0.28-1.12-0.51-2.24-0.7-3.38
	C2.54,91.9-2.02,58.79,10.25,50.22z"/>
</svg>
