<?xml version="1.0" encoding="utf-8"?>
<!-- Generator: Adobe Illustrator 27.3.1, SVG Export Plug-In . SVG Version: 6.00 Build 0)  -->
<svg version="1.1" id="Lag_1" xmlns="http://www.w3.org/2000/svg" xmlns:xlink="http://www.w3.org/1999/xlink" x="0px" y="0px"
	 viewBox="0 0 197.61 205.69" style="enable-background:new 0 0 197.61 205.69;" xml:space="preserve">
<style type="text/css">
	.st0{fill:#E1EEFF;}
</style>
<path class="st0" d="M67.24,12.3c4.09-2.47,8.44-4.47,12.98-5.96c11.61-3.8,32.09-7.47,51.64-0.46
	c28.15,10.08,38.05,14.05,49.82,22.88c5.56,4.17,8.96,11.72,11,18.52c2.02,6.71,2.83,13.72,2.53,20.72
	c-0.42,9.68-1.16,33.46-1.15,38.53c0.01,7.14,2.33,38.61-0.61,47.01s-12.18,28.57-36.55,38.66c-24.37,10.08-67.11,13.53-84.34,7.64
	s-40.36-14.79-45.55-21.2c-5.11-6.31-20.32-56.04-21.5-59.51c-0.97-2.85-5.76-31.97-1.98-40.79S20.89,53.79,24.3,49.44
	c4.62-5.88,7.21-12.92,14.1-19.43C43.71,25.01,59.51,16.96,67.24,12.3z"/>
</svg>
