<?xml version="1.0" encoding="utf-8"?>
<!-- Generator: Adobe Illustrator 27.3.1, SVG Export Plug-In . SVG Version: 6.00 Build 0)  -->
<svg version="1.1" id="Lag_1" xmlns="http://www.w3.org/2000/svg" xmlns:xlink="http://www.w3.org/1999/xlink" x="0px" y="0px"
	 viewBox="0 0 195.24 184.65" style="enable-background:new 0 0 195.24 184.65;" xml:space="preserve">
<style type="text/css">
	.st0{fill:#E1EEFF;}
</style>
<path class="st0" d="M10.7,58.84c0.01-5.96,0.84-11.9,2.57-17.6c4.02-13.3,13.31-33.88,32.53-35.58
	c28.57-2.52,22.69,3.78,59.24-0.42S144,0.4,156.22,6.85c12.07,6.36,27.38,32.84,27.38,32.84s7.7,16.67,9.24,26.47
	c1.57,9.97-0.84,32.77-4.62,46.22c-3.78,13.45-10.08,42.44-21.85,52.52c-11.76,10.08-50.84,11.76-50.84,11.76l-51.61,5.96
	c-4.11,0.37-13.07-0.84-17.01-2.08c-2.58-0.81-5.56-2.03-8.69-3.88c-9.24-5.46-31.26-19.11-34.03-37.39
	c-2.75-18.08-3.01-32.6,2.1-45.38C10.09,84.41,10.68,67.9,10.7,58.84z"/>
</svg>
